# xmcd
#
# Track frame offsets: 
#        150
#        11253
#        22069
#        34457
#        43675
#        52974
#        66333
#        75177
#        84297
#        95065
#        105260
#        115363
#        125126
#        135772
#        146230
#        158185
#        167579
#        179854
#        189549
#        199118
#        209358
#        220647
#        230467
#        244733
#        255296
#
# Disc length: 3536 seconds
#
# Revision: 0
# Processed by: cddbd v1.5.2PL0 Copyright (c) Steve Scherf et al.
# Submitted via: ExactAudioCopyFreeDBPlugin 1.0
#
DISCID=580dce19
DTITLE=Various Artist - The Okeh Story [CD1)
DYEAR=1900
DGENRE=Rhythm and Blues - Doo Wop
TTITLE0=Screamin' Jay Hawkins - I Put A Spell On You
TTITLE1=Little Joe and The Thrillers - Peanuts
TTITLE2=Big Maybelle - Whole Lotta Shakin' Goin' On
TTITLE3=Billy Lamont - Country Boy
TTITLE4=Dave 'Baby' Cortez - You Give Me Heebie Jeebies
TTITLE5=Chuck Willis - Charged With Cheatin'
TTITLE6=LaVerne Ray and The Raytones - I've Got That Feeling
TTITLE7=Paul Gayten - Cow Cow Blues
TTITLE8=Marie Knight - Come Tomorrow
TTITLE9=Big John and The Buzzards - Oop Shoop
TTITLE10=Billy Stewart and The Marquees - Billy's Heartache
TTITLE11=Sandra Thompson - (My Baby Don't Love Me) No More
TTITLE12=Lloyd 'Fatman' Smith - Miss Mushmouth
TTITLE13=The Eventuals - Charlie Chan
TTITLE14=The Schoolboys - Please Say You Want Me
TTITLE15=Frankie Tyler (Frankie Valli) - I Go Ape
TTITLE16=Little Joe and The Thrillers - Lonesome
TTITLE17=Screamin' Jay Hawkins - Person To Person
TTITLE18=Big Maybelle - The Other Night
TTITLE19=Derrell Felts - Lookie Lookie Lookie
TTITLE20=Chuck Willis - Ring Ding Doo
TTITLE21=The Skee Brothers - That's All She Wrote
TTITLE22=Brook Benton - The Kentuckian Song
TTITLE23=Sunny and The Sunglows - Golly Gee
TTITLE24=The Kid and The Ponies - The Pony
EXTD=
EXTT0=
EXTT1=
EXTT2=
EXTT3=
EXTT4=
EXTT5=
EXTT6=
EXTT7=
EXTT8=
EXTT9=
EXTT10=
EXTT11=
EXTT12=
EXTT13=
EXTT14=
EXTT15=
EXTT16=
EXTT17=
EXTT18=
EXTT19=
EXTT20=
EXTT21=
EXTT22=
EXTT23=
EXTT24=
PLAYORDER=
